<svg width="725" height="533" viewBox="0 0 725 533" fill="none" xmlns="http://www.w3.org/2000/svg">
<g clip-path="url(#clip0_234:1907)">
<path opacity="0.1" d="M217.125 252.383C221.472 252.383 224.996 251.9 224.996 251.304C224.996 250.708 221.472 250.224 217.125 250.224C212.778 250.224 209.253 250.708 209.253 251.304C209.253 251.9 212.778 252.383 217.125 252.383Z" fill="#7300F3"/>
<path opacity="0.1" d="M186.978 255.443C191.326 255.443 194.85 254.96 194.85 254.363C194.85 253.767 191.326 253.284 186.978 253.284C182.631 253.284 179.107 253.767 179.107 254.363C179.107 254.96 182.631 255.443 186.978 255.443Z" fill="#7300F3"/>
<path opacity="0.1" d="M151.481 251.304C155.829 251.304 159.353 250.82 159.353 250.224C159.353 249.628 155.829 249.145 151.481 249.145C147.134 249.145 143.61 249.628 143.61 250.224C143.61 250.82 147.134 251.304 151.481 251.304Z" fill="#7300F3"/>
<path opacity="0.1" d="M199.047 263.845C202.135 263.845 204.638 263.5 204.638 263.075C204.638 262.649 202.135 262.305 199.047 262.305C195.959 262.305 193.456 262.649 193.456 263.075C193.456 263.5 195.959 263.845 199.047 263.845Z" fill="#7300F3"/>
<path opacity="0.1" d="M167.76 263.075C170.848 263.075 173.351 262.73 173.351 262.305C173.351 261.879 170.848 261.535 167.76 261.535C164.672 261.535 162.169 261.879 162.169 262.305C162.169 262.73 164.672 263.075 167.76 263.075Z" fill="#7300F3"/>
<path d="M186.814 254.123C186.814 254.123 197.845 217.909 185.083 203.408C175.535 192.558 164.683 193.83 159.875 195.206C158.619 195.54 157.451 196.144 156.451 196.975C155.451 197.806 154.644 198.844 154.084 200.019C152.388 203.683 152.711 209.644 164.676 216.575C184.726 228.195 185.969 244.139 185.969 244.139L186.814 254.123Z" fill="#00FFFF"/>
<path d="M161.578 200.335C161.578 200.335 194.108 210.518 186.814 254.123" stroke="#565987" stroke-miterlimit="10"/>
<path d="M180.577 203.986C180.577 203.986 176.098 207.004 177.52 211.549" stroke="#565987" stroke-miterlimit="10"/>
<path d="M164.841 206.674C164.841 206.674 167.588 203.883 170.906 205.423" stroke="#565987" stroke-miterlimit="10"/>
<path d="M177.733 220.693C177.733 220.693 182.541 218.252 183.784 221.312" stroke="#565987" stroke-miterlimit="10"/>
<path d="M189.595 225.788C189.595 225.788 185.982 225.5 185.921 227.225" stroke="#565987" stroke-miterlimit="10"/>
<path d="M187.26 254.412C187.26 254.412 174.333 228.092 170.775 228.669C169.093 228.944 168.316 230.601 167.959 232.272C167.517 234.428 167.758 236.667 168.646 238.68C170.508 242.888 175.432 250.898 187.26 254.412Z" fill="#00FFFF"/>
<path d="M170.865 233.661C170.865 233.661 184.43 253.353 187.054 254.219" stroke="#565987" stroke-miterlimit="10"/>
<path d="M169.635 236.734H172.801" stroke="#565987" stroke-miterlimit="10"/>
<path d="M173.427 243.94L178.386 244.153" stroke="#565987" stroke-miterlimit="10"/>
<path d="M176.449 238.178L175.906 240.763" stroke="#565987" stroke-miterlimit="10"/>
<path d="M181.724 246.051L181.628 248.402" stroke="#565987" stroke-miterlimit="10"/>
<path d="M186.875 254.412C186.875 254.412 199.795 228.092 203.36 228.669C205.05 228.944 205.826 230.601 206.176 232.272C206.615 234.428 206.375 236.667 205.49 238.68C203.628 242.888 198.703 250.898 186.875 254.412Z" fill="#00FFFF"/>
<path d="M203.25 233.661C203.25 233.661 189.685 253.353 187.068 254.219" stroke="#565987" stroke-miterlimit="10"/>
<path d="M204.5 236.734H201.334" stroke="#565987" stroke-miterlimit="10"/>
<path d="M200.709 243.94L195.743 244.153" stroke="#565987" stroke-miterlimit="10"/>
<path d="M197.687 238.178L198.229 240.763" stroke="#565987" stroke-miterlimit="10"/>
<path d="M192.412 246.051L192.508 248.402" stroke="#565987" stroke-miterlimit="10"/>
<path d="M164.683 260.558C164.33 260.27 164.074 259.882 163.948 259.444C163.89 259.226 163.91 258.994 164.004 258.788C164.098 258.583 164.26 258.416 164.463 258.317C164.93 258.131 165.438 258.461 165.837 258.791C166 258.984 166.202 259.14 166.429 259.25C166.656 259.36 166.903 259.422 167.155 259.431C166.898 259.197 166.706 258.901 166.596 258.571C166.487 258.241 166.464 257.888 166.53 257.547C166.557 257.406 166.619 257.273 166.709 257.162C166.97 256.88 167.444 257.004 167.76 257.224C168.756 257.911 169.031 259.286 169.037 260.503C169.091 260.047 169.091 259.585 169.037 259.128C169.017 258.902 169.053 258.675 169.141 258.466C169.23 258.257 169.369 258.074 169.546 257.932C169.782 257.804 170.047 257.741 170.315 257.746C170.538 257.714 170.765 257.73 170.981 257.791C171.198 257.853 171.399 257.959 171.572 258.104C171.736 258.331 171.821 258.605 171.812 258.885C171.803 259.165 171.702 259.435 171.524 259.651C171.153 260.068 170.714 260.419 170.226 260.689C169.852 260.909 169.535 261.212 169.299 261.576C169.269 261.625 169.246 261.678 169.23 261.734H166.414C165.789 261.418 165.207 261.023 164.683 260.558V260.558Z" fill="#00FFFF"/>
<path d="M213.931 249.956C213.579 249.671 213.323 249.284 213.196 248.849C213.138 248.63 213.157 248.397 213.251 248.19C213.345 247.983 213.508 247.815 213.711 247.715C213.962 247.666 214.222 247.685 214.463 247.769C214.705 247.854 214.919 248.001 215.085 248.196C215.247 248.389 215.449 248.545 215.676 248.654C215.904 248.763 216.152 248.823 216.404 248.829C216.146 248.595 215.953 248.299 215.843 247.969C215.734 247.639 215.711 247.286 215.779 246.945C215.802 246.804 215.864 246.674 215.957 246.566C216.218 246.285 216.692 246.401 217.008 246.621C218.004 247.309 218.279 248.684 218.286 249.908C218.339 249.451 218.339 248.99 218.286 248.533C218.265 248.307 218.301 248.08 218.39 247.871C218.478 247.662 218.617 247.479 218.794 247.337C219.029 247.208 219.295 247.146 219.563 247.158C219.786 247.124 220.014 247.139 220.23 247.2C220.447 247.262 220.648 247.369 220.82 247.515C220.985 247.741 221.07 248.015 221.061 248.294C221.052 248.573 220.951 248.841 220.772 249.055C220.401 249.473 219.962 249.824 219.474 250.094C219.102 250.315 218.785 250.619 218.547 250.981C218.517 251.03 218.494 251.083 218.478 251.139H215.662C215.035 250.823 214.453 250.425 213.931 249.956V249.956Z" fill="#00FFFF"/>
<path d="M197.515 260.558C197.163 260.27 196.906 259.882 196.78 259.444C196.724 259.226 196.744 258.994 196.838 258.789C196.932 258.584 197.093 258.417 197.295 258.317C197.769 258.131 198.271 258.461 198.669 258.791C198.833 258.984 199.034 259.14 199.261 259.25C199.488 259.36 199.736 259.421 199.988 259.431C199.731 259.197 199.539 258.9 199.431 258.57C199.323 258.24 199.302 257.888 199.37 257.547C199.391 257.405 199.45 257.272 199.541 257.162C199.802 256.88 200.276 257.004 200.592 257.224C201.588 257.911 201.87 259.286 201.877 260.503C201.927 260.046 201.927 259.585 201.877 259.128C201.856 258.902 201.892 258.675 201.981 258.466C202.069 258.257 202.208 258.074 202.385 257.932C202.709 257.783 203.066 257.72 203.421 257.75C203.776 257.78 204.117 257.902 204.411 258.104C204.578 258.33 204.663 258.605 204.655 258.886C204.646 259.166 204.543 259.436 204.363 259.651C203.994 260.07 203.555 260.421 203.065 260.689C202.694 260.912 202.377 261.215 202.138 261.576C202.111 261.627 202.088 261.68 202.069 261.734H199.26C198.629 261.42 198.043 261.025 197.515 260.558V260.558Z" fill="#00FFFF"/>
<path d="M150.945 239.134C150.945 239.134 149.895 240.509 151.433 242.572C152.972 244.634 154.249 246.415 153.734 247.715C153.734 247.715 151.406 243.844 149.517 243.789C147.628 243.734 148.885 241.458 150.945 239.134Z" fill="#00FFFF"/>
<path opacity="0.1" d="M150.946 239.134C150.853 239.267 150.782 239.413 150.733 239.567C148.885 241.733 147.903 243.761 149.675 243.809C151.33 243.857 153.315 246.821 153.796 247.563C153.782 247.622 153.763 247.679 153.741 247.735C153.741 247.735 151.413 243.864 149.524 243.809C147.635 243.754 148.885 241.458 150.946 239.134Z" fill="black"/>
<path d="M149.009 240.887C149.009 241.375 149.064 241.767 149.132 241.767C149.201 241.767 149.249 241.375 149.249 240.887C149.249 240.399 149.187 240.633 149.118 240.633C149.05 240.633 149.009 240.406 149.009 240.887Z" fill="#FF0041"/>
<path d="M148.336 241.472C148.761 241.705 149.132 241.843 149.167 241.781C149.201 241.719 148.878 241.485 148.48 241.259C148.081 241.032 148.219 241.19 148.191 241.259C148.164 241.327 147.91 241.272 148.336 241.472Z" fill="#FF0041"/>
<path d="M156.537 239.134C156.537 239.134 157.594 240.509 156.049 242.572C154.504 244.634 153.24 246.415 153.755 247.715C153.755 247.715 156.076 243.844 157.972 243.789C159.868 243.734 158.618 241.458 156.537 239.134Z" fill="#00FFFF"/>
<path opacity="0.1" d="M156.537 239.134C156.629 239.267 156.7 239.413 156.749 239.567C158.597 241.733 159.579 243.761 157.807 243.809C156.152 243.857 154.174 246.821 153.686 247.563C153.7 247.622 153.719 247.679 153.741 247.735C153.741 247.735 156.063 243.864 157.958 243.809C159.854 243.754 158.618 241.458 156.537 239.134Z" fill="black"/>
<path d="M158.501 240.887C158.501 241.375 158.453 241.767 158.384 241.767C158.315 241.767 158.26 241.375 158.26 240.887C158.26 240.399 158.329 240.633 158.398 240.633C158.467 240.633 158.501 240.406 158.501 240.887Z" fill="#FF0041"/>
<path d="M159.188 241.472C158.762 241.705 158.391 241.843 158.364 241.781C158.336 241.719 158.645 241.485 159.051 241.259C159.456 241.032 159.312 241.19 159.346 241.259C159.38 241.327 159.593 241.272 159.188 241.472Z" fill="#FF0041"/>
<path d="M158.165 247.556C158.165 247.556 155.211 247.467 154.325 246.834C153.439 246.202 149.792 245.459 149.572 246.456C149.352 247.453 145.142 251.51 148.466 251.537C151.79 251.565 156.2 251.015 157.086 250.479C157.972 249.942 158.165 247.556 158.165 247.556Z" fill="#A8A8A8"/>
<path opacity="0.2" d="M148.411 251.18C151.735 251.18 156.145 250.664 157.031 250.121C157.718 249.709 157.972 248.23 158.061 247.55H158.164C158.164 247.55 157.972 249.929 157.086 250.472C156.2 251.015 151.797 251.558 148.466 251.531C147.511 251.531 147.175 251.18 147.195 250.671C147.326 250.987 147.697 251.173 148.411 251.18Z" fill="black"/>
<path opacity="0.1" d="M102.68 407.263C115.85 407.263 126.527 405.684 126.527 403.736C126.527 401.788 115.85 400.209 102.68 400.209C89.5086 400.209 78.8315 401.788 78.8315 403.736C78.8315 405.684 89.5086 407.263 102.68 407.263Z" fill="#7300F3"/>
<path opacity="0.1" d="M607.972 480.255C621.143 480.255 631.82 478.675 631.82 476.727C631.82 474.779 621.143 473.2 607.972 473.2C594.801 473.2 584.124 474.779 584.124 476.727C584.124 478.675 594.801 480.255 607.972 480.255Z" fill="#7300F3"/>
<path opacity="0.1" d="M337.313 397.335C346.034 397.335 353.104 396.544 353.104 395.568C353.104 394.592 346.034 393.801 337.313 393.801C328.592 393.801 321.522 394.592 321.522 395.568C321.522 396.544 328.592 397.335 337.313 397.335Z" fill="#7300F3"/>
<path opacity="0.1" d="M440.335 440.651C449.057 440.651 456.126 439.86 456.126 438.884C456.126 437.908 449.057 437.117 440.335 437.117C431.614 437.117 424.544 437.908 424.544 438.884C424.544 439.86 431.614 440.651 440.335 440.651Z" fill="#7300F3"/>
<path opacity="0.1" d="M304.034 428.99C312.755 428.99 319.825 428.199 319.825 427.223C319.825 426.247 312.755 425.456 304.034 425.456C295.313 425.456 288.243 426.247 288.243 427.223C288.243 428.199 295.313 428.99 304.034 428.99Z" fill="#7300F3"/>
<path opacity="0.1" d="M176.298 424.404C185.019 424.404 192.089 423.613 192.089 422.637C192.089 421.661 185.019 420.87 176.298 420.87C167.576 420.87 160.507 421.661 160.507 422.637C160.507 423.613 167.576 424.404 176.298 424.404Z" fill="#7300F3"/>
<path opacity="0.1" d="M143.012 456.059C151.733 456.059 158.803 455.268 158.803 454.292C158.803 453.317 151.733 452.525 143.012 452.525C134.291 452.525 127.221 453.317 127.221 454.292C127.221 455.268 134.291 456.059 143.012 456.059Z" fill="#7300F3"/>
<path opacity="0.1" d="M563.291 306.577C572.013 306.577 579.082 305.786 579.082 304.81C579.082 303.834 572.013 303.043 563.291 303.043C554.57 303.043 547.5 303.834 547.5 304.81C547.5 305.786 554.57 306.577 563.291 306.577Z" fill="#7300F3"/>
<path opacity="0.1" d="M503.493 402.824C525.116 402.824 542.644 399.665 542.644 395.769C542.644 391.873 525.116 388.715 503.493 388.715C481.87 388.715 464.342 391.873 464.342 395.769C464.342 399.665 481.87 402.824 503.493 402.824Z" fill="#7300F3"/>
<path opacity="0.1" d="M458.867 322.934C458.867 328.056 426.372 357.656 352.403 357.656C278.435 357.656 238.384 329.088 238.384 323.965C238.384 318.843 279.808 331.528 353.777 331.528C427.745 331.528 458.867 317.805 458.867 322.934Z" fill="#7300F3"/>
<path opacity="0.1" d="M134.055 344.826C147.226 344.826 157.903 343.247 157.903 341.299C157.903 339.351 147.226 337.771 134.055 337.771C120.885 337.771 110.208 339.351 110.208 341.299C110.208 343.247 120.885 344.826 134.055 344.826Z" fill="#7300F3"/>
<path opacity="0.1" d="M200.668 374.033C213.839 374.033 224.516 372.454 224.516 370.506C224.516 368.558 213.839 366.979 200.668 366.979C187.497 366.979 176.82 368.558 176.82 370.506C176.82 372.454 187.497 374.033 200.668 374.033Z" fill="#7300F3"/>
<path d="M349.477 208.599C407.183 208.599 453.963 187.701 453.963 161.921C453.963 136.141 407.183 115.242 349.477 115.242C291.771 115.242 244.991 136.141 244.991 161.921C244.991 187.701 291.771 208.599 349.477 208.599Z" fill="#1C47E5"/>
<path d="M455.776 178.608C451.154 202.948 405.477 222.055 349.8 222.055C293.635 222.055 247.642 202.611 243.7 177.975H243.308V217.641C261.675 236.851 302.338 250.211 349.539 250.211C396.74 250.211 437.403 236.851 455.776 217.641V178.608Z" fill="#1C47E5"/>
<path d="M455.776 226.875C451.154 251.207 405.477 270.321 349.8 270.321C293.635 270.321 247.642 250.877 243.7 226.235H243.308V265.907C261.675 285.118 302.338 298.47 349.539 298.47C396.74 298.47 437.403 285.118 455.776 265.907V226.875Z" fill="#1C47E5"/>
<path d="M455.776 279.961C451.154 304.301 405.477 323.408 349.8 323.408C293.635 323.408 247.642 303.971 243.7 279.329H243.308V322.109C243.307 323.02 243.494 323.922 243.858 324.758C244.222 325.593 244.755 326.344 245.424 326.963C264.656 344.64 304.075 351.564 349.539 351.564C395.003 351.564 434.401 344.64 453.661 326.963C454.329 326.344 454.863 325.593 455.227 324.758C455.591 323.922 455.778 323.02 455.776 322.109V279.961Z" fill="#1C47E5"/>
<path d="M555.626 297.109C555.626 297.109 560.674 296.951 562.199 295.865C563.724 294.778 569.968 293.486 570.346 295.225C570.723 296.965 577.942 303.882 572.234 303.93C566.527 303.978 558.985 303.036 557.467 302.115C555.949 301.193 555.626 297.109 555.626 297.109Z" fill="#A8A8A8"/>
<path opacity="0.2" d="M572.337 303.324C566.636 303.366 559.088 302.431 557.57 301.509C556.409 300.822 555.949 298.271 555.798 297.102H555.626C555.626 297.102 555.949 301.179 557.467 302.108C558.985 303.036 566.533 303.964 572.234 303.923C573.883 303.923 574.453 303.324 574.419 302.451C574.192 302.988 573.567 303.311 572.337 303.324Z" fill="black"/>
<g opacity="0.1">
<path d="M236.481 337.579C260.459 328.139 298.1 326.213 332.36 326.97C439.979 329.328 537.122 352.272 621.146 378.227C651.567 387.626 681.515 397.754 701.262 410.694C741.457 437.035 729.533 473.523 673.643 495.223C654.624 502.607 631.573 508.287 607.903 513.278C565.812 522.203 520.424 529.36 472.66 531.423C438.605 532.874 404.124 531.691 370.269 529.663C275.667 523.977 182.816 511.484 104.987 490.011C70.8502 480.612 38.6775 468.924 24.6242 453.708C10.5709 438.492 19.5551 419.227 54.4136 410.22C68.8377 406.5 86.0643 404.815 102.941 403.241C127.778 400.917 153.013 398.621 175.425 393.897C198.58 389.015 225.992 379.575 221.411 368.774C216.473 357.181 212.53 347.005 236.481 337.579Z" fill="#00FFFF"/>
<path d="M21.4922 29.7439C29.6974 29.7439 36.349 23.0855 36.349 14.872C36.349 6.6584 29.6974 0 21.4922 0C13.2869 0 6.63525 6.6584 6.63525 14.872C6.63525 23.0855 13.2869 29.7439 21.4922 29.7439Z" fill="#00FFFF"/>
<path d="M660.277 72.3728C668.482 72.3728 675.134 65.7144 675.134 57.5009C675.134 49.2873 668.482 42.6289 660.277 42.6289C652.072 42.6289 645.42 49.2873 645.42 57.5009C645.42 65.7144 652.072 72.3728 660.277 72.3728Z" fill="#00FFFF"/>
<path d="M10.9898 84.0064C17.0594 84.0064 21.9797 79.081 21.9797 73.0054C21.9797 66.9297 17.0594 62.0044 10.9898 62.0044C4.92032 62.0044 0 66.9297 0 73.0054C0 79.081 4.92032 84.0064 10.9898 84.0064Z" fill="#00FFFF"/>
<path d="M122.262 22.1257C128.332 22.1257 133.252 17.2004 133.252 11.1248C133.252 5.04909 128.332 0.123779 122.262 0.123779C116.193 0.123779 111.272 5.04909 111.272 11.1248C111.272 17.2004 116.193 22.1257 122.262 22.1257Z" fill="#00FFFF"/>
<path d="M572.846 23.501C578.915 23.501 583.835 18.5757 583.835 12.5C583.835 6.42433 578.915 1.49902 572.846 1.49902C566.776 1.49902 561.856 6.42433 561.856 12.5C561.856 18.5757 566.776 23.501 572.846 23.501Z" fill="#00FFFF"/>
</g>
<path d="M481.513 302.884C483.491 304.053 486.596 304.817 490.504 302.3L490.47 307.876C490.745 311.699 495.47 325.636 495.47 325.636L498.801 337.098C501.192 345.198 502.425 353.596 502.462 362.042C502.462 364.834 502.723 367.722 503.527 369.894C505.306 374.707 502.84 380.895 501.762 383.178C499.958 383.788 498.124 384.305 496.267 384.725C496.101 384.765 495.938 384.815 495.779 384.876V384.842C495.779 384.842 490.779 386.829 488.553 386.554C486.898 386.354 485.861 388.424 487.18 389.944C486.103 390.272 484.98 390.421 483.855 390.384C481.63 390.109 480.517 393.931 484.686 395.025C488.856 396.118 512.477 395.025 512.477 395.025C513.14 394.692 513.674 394.148 513.995 393.479C514.316 392.809 514.405 392.052 514.249 391.326L517.203 391.202C517.203 391.202 521.372 389.29 517.203 384.099L516.976 384.264L516.09 381.638V378.097C516.09 378.097 521.372 352.657 519.703 349.68C518.034 346.703 517.148 331.343 517.148 331.343L517.731 314.704C519.236 311.596 520.005 306.714 520.396 302.898C520.965 301.08 521.323 299.202 521.461 297.302C521.53 296.401 521.585 295.466 521.619 294.489C521.642 292.347 521.298 290.217 520.603 288.191C522.488 285.392 524.594 282.748 526.901 280.284C527.861 279.391 528.59 278.278 529.026 277.041C529.463 275.805 529.594 274.48 529.408 273.182L528.034 263.893L524.696 248.079C525.115 243.685 524.202 241.155 523.185 239.725C523.426 238.302 523.652 236.885 523.824 235.455C524.559 229.257 524.229 222.978 522.849 216.891C522.368 214.774 521.708 212.594 520.218 210.985C518.535 209.156 515.801 208.049 515.169 205.663C515.08 205.055 514.952 204.453 514.785 203.862C514.174 202.301 512.25 201.73 510.561 201.524C507.552 201.16 503.204 200.885 500.313 202.067C497.775 203.191 495.686 205.132 494.378 207.582C493.727 208.588 493.482 209.804 493.691 210.985C493.794 211.395 493.954 211.788 494.165 212.154C493.203 214.766 493.307 217.653 494.457 220.189C495.606 222.724 497.708 224.704 500.306 225.699C500.374 225.912 500.436 226.118 500.484 226.318C500.611 226.808 500.703 227.306 500.759 227.81C500.704 228.772 500.642 229.742 500.601 230.711L500.498 231.103C498.107 232.163 495.775 233.352 493.513 234.665C495.175 237.126 493.231 247.508 493.231 247.508C489.062 249.963 484.899 256.247 489.343 262.807C493.787 269.366 491.287 276.462 491.287 276.462L490.6 287.146L490.463 289.285H490.511L490.463 290.096H490.58V290.969C488.629 291.691 485.772 293.135 484.075 295.816C483.271 297.131 482.294 298.331 481.17 299.385C480.908 299.609 480.704 299.894 480.575 300.214C480.446 300.534 480.397 300.881 480.43 301.224C480.464 301.568 480.58 301.898 480.769 302.187C480.957 302.476 481.213 302.715 481.513 302.884V302.884ZM515.066 274.502C514.899 272.653 515.241 270.793 516.056 269.125H518.02C518.078 269.56 518.158 269.991 518.26 270.418C518.824 272.859 516.571 274.007 515.066 274.502V274.502Z" fill="url(#paint0_linear_234:1907)"/>
<path d="M515.616 380.386L516.687 383.597L513.212 387.076L501.714 389.785L493.423 388.981L493.959 386.038C494.117 385.405 494.446 384.828 494.91 384.369C495.374 383.911 495.955 383.589 496.59 383.439C500.024 382.642 506.494 380.813 507.861 378.276L515.616 380.386Z" fill="#DB8B8B"/>
<path opacity="0.1" d="M515.616 380.386L516.687 383.597L513.212 387.076L501.714 389.785L493.423 388.981L493.959 386.038C494.117 385.405 494.446 384.828 494.91 384.369C495.374 383.911 495.955 383.589 496.59 383.439C500.024 382.642 506.494 380.813 507.861 378.276L515.616 380.386Z" fill="black"/>
<path d="M496.095 388.149L497.703 386.011L496.095 383.529C496.095 383.529 491.287 385.474 489.144 385.206C487.001 384.938 485.937 388.685 489.948 389.758C493.959 390.831 516.688 389.758 516.688 389.758C516.688 389.758 520.699 387.881 516.688 382.793L513.212 385.474C513.212 385.474 507.326 388.685 504.386 388.149H496.095Z" fill="#C17174"/>
<path d="M488.883 392.701L497.174 393.505L508.672 390.824L512.147 387.345L511.866 386.499L511.467 385.303L511.076 384.134L503.307 381.995C502.913 382.636 502.374 383.175 501.734 383.57C499.214 385.296 494.694 386.54 492.036 387.159C491.924 387.186 491.814 387.221 491.706 387.262C491.189 387.427 490.718 387.712 490.332 388.094C489.868 388.55 489.54 389.126 489.385 389.758L488.883 392.701Z" fill="#DB8B8B"/>
<path opacity="0.1" d="M488.883 392.701L497.174 393.505L508.672 390.824L512.147 387.345L511.866 386.499L508.672 388.953C508.672 388.953 502.785 392.164 499.846 391.628H491.548L493.155 389.49L491.713 387.262C491.196 387.427 490.725 387.712 490.339 388.094C489.875 388.55 489.547 389.126 489.391 389.758L488.883 392.701Z" fill="black"/>
<path d="M491.548 391.896L493.156 389.758L491.548 387.276C491.548 387.276 486.74 389.222 484.597 388.953C482.454 388.685 481.39 392.432 485.401 393.505C489.412 394.578 512.14 393.505 512.14 393.505C512.14 393.505 516.152 391.628 512.14 386.547L508.665 389.222C508.665 389.222 502.779 392.432 499.839 391.896H491.548Z" fill="#C17174"/>
<path d="M498.231 236.645C498.231 236.645 511.069 238.02 509.221 232.629C508.693 231.111 508.556 229.484 508.823 227.899C509.153 225.937 509.929 224.076 511.09 222.46L499.056 224.331C499.779 225.538 500.329 226.841 500.69 228.202C502.098 233.881 498.231 236.645 498.231 236.645Z" fill="#DB8B8B"/>
<path d="M520.163 297.652C520.163 297.652 519.895 309.162 517.223 314.786L516.688 331.116C516.688 331.116 517.484 346.105 519.092 349.047C520.699 351.99 515.616 376.887 515.616 376.887V381.17C515.616 381.17 507.058 384.381 504.626 380.634L507.03 348.779L505.959 304.617L520.163 297.652Z" fill="#474463"/>
<path opacity="0.1" d="M520.163 297.652C520.163 297.652 519.895 309.162 517.223 314.786L516.688 331.116C516.688 331.116 517.484 346.105 519.092 349.047C520.699 351.99 515.616 376.887 515.616 376.887V381.17C515.616 381.17 507.058 384.381 504.626 380.634L507.03 348.779L505.959 304.617L520.163 297.652Z" fill="black"/>
<path d="M525.507 260.737L527.114 265.021L528.488 274.117C528.667 275.386 528.541 276.68 528.122 277.891C527.703 279.102 527.002 280.196 526.077 281.082C522.869 284.293 518.59 290.983 518.59 290.983L513.514 275.726C513.514 275.726 518.59 274.921 517.786 271.442C516.983 267.963 517.258 261.542 517.258 261.542L525.507 260.737Z" fill="#FF0041"/>
<path opacity="0.05" d="M525.569 260.675L527.169 264.959L528.543 274.062C528.724 275.33 528.601 276.622 528.183 277.833C527.765 279.043 527.064 280.136 526.139 281.02C522.924 284.231 518.652 290.928 518.652 290.928L513.535 275.65C513.535 275.65 518.618 274.846 517.814 271.367C517.01 267.888 517.278 261.459 517.278 261.459L525.569 260.675Z" fill="black"/>
<path opacity="0.1" d="M501.741 383.597C505.176 389.002 510.513 385.935 511.46 385.33L511.069 384.161L503.307 381.995C502.919 382.645 502.382 383.194 501.741 383.597V383.597Z" fill="black"/>
<path d="M491.012 308.117C491.28 311.864 495.821 325.512 495.821 325.512L499.028 336.747C501.323 344.691 502.509 352.914 502.552 361.183C502.471 363.786 502.817 366.385 503.575 368.877C505.718 374.769 501.439 382.793 501.439 382.793C505.183 389.49 511.598 384.938 511.598 384.938V380.655C511.598 380.655 516.681 357.367 515.341 352.815C514.002 348.264 513.473 335.956 513.473 335.956V313.734C517.755 309.462 520.358 303.79 520.809 297.755C520.87 296.875 520.925 295.954 520.96 295.005C521.173 288.968 517.045 281.887 515.465 279.363C515.08 278.751 514.833 278.407 514.833 278.407L491.225 287.786H491.17V288.714V290.735L491.012 308.117Z" fill="#474463"/>
<path opacity="0.1" d="M499.035 224.331C499.758 225.538 500.309 226.841 500.67 228.202C501.977 228.698 503.37 228.927 504.767 228.875C506.164 228.823 507.536 228.491 508.802 227.899C509.133 225.937 509.908 224.076 511.069 222.46L499.035 224.331Z" fill="black"/>
<path d="M504.386 228.346C510.144 228.346 514.812 223.673 514.812 217.909C514.812 212.145 510.144 207.472 504.386 207.472C498.627 207.472 493.959 212.145 493.959 217.909C493.959 223.673 498.627 228.346 504.386 228.346Z" fill="#DB8B8B"/>
<path opacity="0.1" d="M491.012 290.715H491.129C502.339 293.025 516.42 281.33 516.42 281.33C516.042 280.692 515.716 280.025 515.444 279.336C515.06 278.724 514.812 278.38 514.812 278.38L491.205 287.758L491.143 288.693L491.012 290.715Z" fill="black"/>
<path d="M493.959 236.377C493.959 236.377 508.933 227.273 513.741 231.021L520.431 239.588C520.431 239.588 524.71 240.928 523.913 249.523L527.121 265.048L517.505 267.454C517.505 267.454 511.893 272.811 516.44 280.573C516.44 280.573 502.263 292.351 491.026 289.938L491.83 277.362C491.83 277.362 494.234 270.397 489.962 263.975C485.689 257.554 489.694 251.393 493.705 248.987C493.691 248.959 495.56 238.783 493.959 236.377Z" fill="#FF0041"/>
<path d="M493.155 290.983C493.155 290.983 487.537 292.056 484.865 296.339C484.092 297.626 483.15 298.804 482.063 299.839C481.819 300.061 481.63 300.337 481.512 300.646C481.393 300.954 481.349 301.286 481.381 301.615C481.414 301.944 481.523 302.26 481.7 302.539C481.877 302.818 482.116 303.052 482.399 303.222C484.522 304.5 487.977 305.284 492.352 301.688C499.873 295.535 493.155 290.983 493.155 290.983Z" fill="#DB8B8B"/>
<path opacity="0.1" d="M501.446 241.465C501.446 241.465 506.79 240.928 508.129 254.845C509.468 268.761 511.605 271.979 511.605 271.979C511.605 271.979 512.944 279.205 509.729 283.488C506.515 287.772 500.374 296.875 500.374 296.875C500.374 296.875 493.691 298.745 492.352 292.062L500.642 276.537C500.642 276.537 501.975 271.181 498.767 267.434C495.559 263.687 493.155 238.783 501.446 241.465Z" fill="black"/>
<path d="M500.91 240.66C500.91 240.66 506.254 240.124 507.593 254.047C508.933 267.97 511.069 271.174 511.069 271.174C511.069 271.174 512.443 278.401 509.201 282.684C505.959 286.968 499.873 296.071 499.873 296.071C499.873 296.071 493.19 297.941 491.85 291.258L500.141 275.733C500.141 275.733 501.48 270.377 498.266 266.629C495.051 262.882 492.62 237.986 500.91 240.66Z" fill="#FF0041"/>
<path opacity="0.1" d="M496.494 250.699C496.494 250.699 495.965 258.998 498.369 263.549C500.773 268.101 500.773 273.986 498.369 277.197" fill="black"/>
<path opacity="0.1" d="M495.161 240.523C495.161 240.523 497.297 238.384 503.452 238.116C509.606 237.848 512.271 235.978 512.271 235.978" fill="black"/>
<path opacity="0.1" d="M510.032 204.419C511.66 204.618 513.514 205.175 514.098 206.702C514.259 207.283 514.385 207.873 514.476 208.469C515.08 210.806 517.711 211.906 519.332 213.68C520.761 215.262 521.393 217.393 521.86 219.477C523.191 225.443 523.509 231.591 522.801 237.663C522.279 242.097 521.207 246.47 520.912 250.926C520.616 255.381 521.159 260.077 523.591 263.824C524.641 265.433 526.022 266.85 526.764 268.637C525.232 269.882 523.117 270.06 521.138 270.129C518.849 270.207 516.548 270.207 514.235 270.129C513.025 270.178 511.821 269.925 510.732 269.393C509.962 268.902 509.329 268.223 508.892 267.42C507.573 265.186 507.243 262.497 507.298 259.905C507.353 257.313 507.765 254.735 507.813 252.136C507.95 250.718 507.635 249.293 506.913 248.065C506.25 247.293 505.498 246.601 504.674 246.003C501.81 243.459 500.828 239.388 500.732 235.559C500.635 231.729 501.267 227.899 500.945 224.083C500.821 222.591 500.258 220.797 498.795 220.508C498.332 220.489 497.873 220.429 497.421 220.329C496.246 219.875 496.363 218.218 496.047 217.001C495.669 215.626 494.502 214.574 494.172 213.199C493.403 209.961 497.524 206.09 500.223 204.948C502.923 203.807 507.14 204.061 510.032 204.419Z" fill="black"/>
<path d="M510.3 203.883C511.928 204.082 513.782 204.639 514.366 206.172C514.527 206.751 514.654 207.339 514.744 207.932C515.348 210.27 517.979 211.37 519.6 213.144C521.029 214.726 521.66 216.857 522.128 218.94C523.459 224.913 523.775 231.069 523.062 237.147C522.547 241.582 521.475 245.955 521.18 250.417C520.884 254.879 521.427 259.561 523.858 263.309C524.909 264.924 526.29 266.334 527.032 268.122C525.5 269.373 523.384 269.545 521.406 269.614C519.117 269.687 516.816 269.687 514.503 269.614C513.293 269.664 512.09 269.414 511 268.885C510.23 268.391 509.596 267.71 509.16 266.905C507.841 264.67 507.511 261.982 507.566 259.39C507.621 256.797 508.033 254.219 508.081 251.627C508.081 250.211 507.999 248.712 507.181 247.557C506.519 246.783 505.767 246.09 504.942 245.494C502.078 242.95 501.096 238.88 501 235.05C500.903 231.22 501.535 227.39 501.213 223.574C501.089 222.082 500.526 220.288 499.063 219.999C498.6 219.98 498.141 219.921 497.689 219.82C496.514 219.367 496.631 217.71 496.315 216.493C495.937 215.117 494.77 214.072 494.44 212.69C493.671 209.452 497.792 205.581 500.491 204.44C503.191 203.298 507.429 203.525 510.3 203.883Z" fill="#464353"/>
<path d="M87.9463 393.815C87.9463 393.815 95.3095 393.588 97.5212 392.006C99.7329 390.425 108.841 388.534 109.39 391.071C109.94 393.608 120.449 403.681 112.138 403.75C103.827 403.819 92.8368 402.45 90.6182 401.103C88.3996 399.755 87.9463 393.815 87.9463 393.815Z" fill="#A8A8A8"/>
<path opacity="0.2" d="M112.289 402.849C103.985 402.918 92.9879 401.557 90.7762 400.209C89.0934 399.178 88.4202 395.492 88.1936 393.787H87.9463C87.9463 393.787 88.4134 399.728 90.6251 401.075C92.8368 402.423 103.833 403.784 112.145 403.722C114.542 403.722 115.366 402.849 115.325 401.584C114.988 402.375 114.075 402.849 112.289 402.849Z" fill="black"/>
<path d="M611.049 444.44C611.049 444.44 613.797 448.043 609.778 453.481C605.76 458.92 602.443 463.506 603.782 466.895C603.782 466.895 609.847 456.802 614.772 456.658C619.697 456.513 616.475 450.518 611.049 444.44Z" fill="#71F174"/>
<path opacity="0.1" d="M611.049 444.44C611.288 444.789 611.475 445.171 611.605 445.574C616.413 451.24 618.996 456.527 614.353 456.658C610.039 456.781 604.867 464.503 603.624 466.455C603.665 466.605 603.716 466.752 603.775 466.895C603.775 466.895 609.84 456.802 614.765 456.658C619.69 456.513 616.475 450.518 611.049 444.44Z" fill="black"/>
<path d="M616.159 449.033C616.159 450.298 616.015 451.329 615.843 451.329C615.672 451.329 615.527 450.298 615.527 449.033C615.527 447.768 615.706 448.345 615.878 448.345C616.049 448.345 616.159 447.761 616.159 449.033Z" fill="#FFD037"/>
<path d="M617.918 450.545C616.805 451.15 615.857 451.515 615.747 451.363C615.637 451.212 616.503 450.593 617.609 449.988C618.714 449.383 618.295 449.823 618.371 449.988C618.447 450.153 619.03 449.94 617.918 450.545Z" fill="#FFD037"/>
<path d="M596.515 444.44C596.515 444.44 593.767 448.043 597.786 453.481C601.804 458.92 605.121 463.506 603.782 466.895C603.782 466.895 597.71 456.802 592.792 456.658C587.874 456.513 591.082 450.518 596.515 444.44Z" fill="#71F174"/>
<path opacity="0.1" d="M596.515 444.44C596.275 444.79 596.086 445.172 595.952 445.574C591.144 451.24 588.568 456.527 593.204 456.658C597.518 456.781 602.697 464.503 603.933 466.455C603.892 466.6 603.844 466.751 603.789 466.895C603.789 466.895 597.717 456.802 592.799 456.658C587.881 456.513 591.082 450.518 596.515 444.44Z" fill="black"/>
<path d="M591.398 449.033C591.398 450.298 591.542 451.329 591.721 451.329C591.899 451.329 592.037 450.298 592.037 449.033C592.037 447.768 591.858 448.345 591.68 448.345C591.501 448.345 591.398 447.761 591.398 449.033Z" fill="#FFD037"/>
<path d="M589.646 450.545C590.759 451.15 591.707 451.515 591.81 451.363C591.913 451.212 591.061 450.593 589.949 449.988C588.836 449.383 589.262 449.823 589.193 449.988C589.124 450.153 588.534 449.94 589.646 450.545Z" fill="#FFD037"/>
<path d="M592.277 466.428C592.277 466.428 599.97 466.187 602.285 464.537C604.599 462.887 614.119 460.914 614.696 463.561C615.273 466.208 626.249 476.741 617.567 476.81C608.885 476.879 597.387 475.435 595.079 474.06C592.772 472.685 592.277 466.428 592.277 466.428Z" fill="#A8A8A8"/>
<path opacity="0.2" d="M617.725 475.889C609.037 475.957 597.545 474.513 595.231 473.138C593.472 472.066 592.765 468.209 592.531 466.428H592.277C592.277 466.428 592.765 472.616 595.079 474.046C597.394 475.476 608.885 476.879 617.567 476.796C620.074 476.796 620.94 475.882 620.892 474.562C620.548 475.373 619.587 475.875 617.725 475.889Z" fill="black"/>
<path opacity="0.6" d="M344.38 18.6535L341.763 170.605C341.763 170.605 436.496 170.605 517.093 196.801L518.666 43.2544C518.666 43.2544 389.391 12.3692 344.38 18.6535Z" fill="#7300F3"/>
<path opacity="0.5" d="M306.782 18.5368L309.398 170.488C309.398 170.488 214.666 170.488 134.069 196.684L132.496 43.179C132.496 43.179 261.771 12.2525 306.782 18.5368Z" fill="#1C47E5"/>
<path opacity="0.7" d="M541.531 65.6072V215.97C541.531 215.97 572.44 212.305 637.308 292.461L643.071 142.098C643.071 142.098 575.552 69.2788 541.531 65.6072Z" fill="#1C47E5"/>
<path opacity="0.4" d="M111.313 69.3818V219.752C111.313 219.752 80.4045 216.087 15.5369 296.243L9.78101 145.88C9.78101 145.88 77.293 73.0603 111.313 69.3818Z" fill="#7300F3"/>
<path opacity="0.7" d="M217.359 86.6121C214.506 86.6121 211.717 87.4589 209.345 89.0454C206.973 90.632 205.124 92.887 204.032 95.5254C202.941 98.1637 202.655 101.067 203.211 103.868C203.768 106.669 205.142 109.241 207.159 111.261C209.176 113.28 211.746 114.655 214.544 115.212C217.343 115.769 220.243 115.483 222.878 114.391C225.514 113.298 227.767 111.447 229.352 109.073C230.937 106.698 231.783 103.907 231.783 101.051C231.783 97.2214 230.263 93.5489 227.558 90.8411C224.853 88.1333 221.184 86.6121 217.359 86.6121V86.6121ZM217.359 89.4104C219.668 89.4104 221.926 90.096 223.846 91.3803C225.766 92.6647 227.263 94.4902 228.146 96.626C229.03 98.7618 229.261 101.112 228.811 103.379C228.36 105.647 227.248 107.729 225.615 109.364C223.982 110.999 221.902 112.112 219.637 112.563C217.371 113.014 215.024 112.782 212.89 111.898C210.756 111.013 208.933 109.515 207.65 107.593C206.367 105.671 205.682 103.411 205.682 101.099C205.682 97.999 206.912 95.026 209.102 92.8339C211.292 90.6419 214.262 89.4104 217.359 89.4104ZM225.525 97.008L224.213 95.681C224.149 95.6145 224.073 95.5615 223.988 95.5254C223.903 95.4892 223.811 95.4706 223.719 95.4706C223.627 95.4706 223.535 95.4892 223.45 95.5254C223.365 95.5615 223.288 95.6145 223.224 95.681L214.982 103.856L211.506 100.322C211.442 100.255 211.366 100.203 211.281 100.166C211.196 100.13 211.104 100.112 211.012 100.112C210.92 100.112 210.828 100.13 210.743 100.166C210.658 100.203 210.581 100.255 210.517 100.322L209.199 101.635C209.132 101.699 209.079 101.776 209.043 101.861C209.007 101.946 208.988 102.038 208.988 102.13C208.988 102.223 209.007 102.314 209.043 102.399C209.079 102.484 209.132 102.561 209.199 102.625L214.487 107.961C214.551 108.027 214.628 108.08 214.713 108.116C214.798 108.153 214.89 108.171 214.982 108.171C215.074 108.171 215.166 108.153 215.251 108.116C215.336 108.08 215.412 108.027 215.477 107.961L225.525 97.9774C225.592 97.9133 225.645 97.8364 225.681 97.7514C225.717 97.6663 225.736 97.5748 225.736 97.4824C225.736 97.39 225.717 97.2985 225.681 97.2135C225.645 97.1284 225.592 97.0515 225.525 96.9874V97.008Z" fill="#71F174"/>
<path opacity="0.7" d="M57.6761 159.714C54.8989 160.359 52.3752 161.815 50.4237 163.895C48.4722 165.976 47.1806 168.589 46.7119 171.404C46.2432 174.219 46.6184 177.111 47.7903 179.712C48.9622 182.314 50.878 184.51 53.2959 186.023C55.7138 187.535 58.5252 188.296 61.375 188.21C64.2249 188.124 66.9853 187.194 69.3076 185.539C71.63 183.883 73.41 181.576 74.423 178.908C75.4359 176.24 75.6363 173.331 74.9988 170.55C74.5745 168.698 73.7895 166.949 72.6887 165.402C71.5879 163.854 70.1929 162.54 68.5837 161.533C66.9745 160.527 65.1828 159.848 63.311 159.536C61.4393 159.223 59.5244 159.284 57.6761 159.714V159.714ZM58.308 162.464C60.5593 161.938 62.9159 162.093 65.0792 162.909C67.2425 163.725 69.1151 165.165 70.4598 167.048C71.8044 168.93 72.5607 171.17 72.6326 173.483C72.7046 175.796 72.089 178.078 70.864 180.041C69.6389 182.003 67.8594 183.557 65.7511 184.507C63.6427 185.456 61.3003 185.757 59.0206 185.372C56.741 184.988 54.6267 183.934 52.9457 182.346C51.2647 180.757 50.0926 178.705 49.5779 176.449C48.8906 173.436 49.4232 170.273 51.0592 167.653C52.6952 165.032 55.3015 163.166 58.308 162.464V162.464ZM67.9722 168.033L66.3924 167.015C66.3152 166.965 66.2288 166.931 66.1382 166.915C66.0476 166.899 65.9548 166.901 65.8651 166.922C65.7754 166.942 65.6907 166.981 65.6161 167.034C65.5415 167.088 65.4785 167.157 65.4308 167.236L59.249 177.054L55.066 174.407C54.9888 174.357 54.9024 174.322 54.8118 174.306C54.7212 174.29 54.6283 174.292 54.5386 174.313C54.449 174.334 54.3643 174.372 54.2897 174.426C54.2151 174.48 54.1521 174.548 54.1044 174.627L53.1084 176.208C53.0583 176.285 53.0241 176.372 53.0081 176.463C52.992 176.553 52.9942 176.646 53.0147 176.736C53.0352 176.826 53.0736 176.911 53.1274 176.985C53.1813 177.06 53.2495 177.123 53.3282 177.171L59.6748 181.179C59.7522 181.231 59.8392 181.266 59.9305 181.282C60.0218 181.299 60.1156 181.297 60.2061 181.276C60.2966 181.256 60.382 181.217 60.4572 181.163C60.5323 181.108 60.5956 181.039 60.6433 180.959L68.1988 168.975C68.2493 168.898 68.2838 168.812 68.3004 168.722C68.317 168.631 68.3154 168.538 68.2955 168.449C68.2756 168.359 68.238 168.274 68.1849 168.199C68.1317 168.124 68.064 168.061 67.9859 168.012L67.9722 168.033Z" fill="#71F174"/>
<path opacity="0.7" d="M427.587 88.7024C424.734 88.7024 421.946 89.5492 419.574 91.1358C417.202 92.7223 415.353 94.9773 414.261 97.6157C413.169 100.254 412.884 103.157 413.44 105.958C413.997 108.759 415.371 111.332 417.388 113.351C419.405 115.37 421.975 116.745 424.773 117.303C427.571 117.86 430.471 117.574 433.107 116.481C435.743 115.388 437.996 113.537 439.581 111.163C441.166 108.788 442.011 105.997 442.011 103.141C442.011 99.3118 440.492 95.6392 437.787 92.9314C435.082 90.2236 431.413 88.7024 427.587 88.7024ZM427.587 91.5008C429.897 91.5008 432.154 92.1863 434.075 93.4706C435.995 94.755 437.491 96.5805 438.375 98.7163C439.259 100.852 439.49 103.202 439.04 105.47C438.589 107.737 437.477 109.82 435.844 111.454C434.211 113.089 432.13 114.202 429.865 114.653C427.6 115.104 425.252 114.873 423.119 113.988C420.985 113.103 419.161 111.605 417.878 109.683C416.595 107.761 415.911 105.501 415.911 103.189C415.911 100.089 417.141 97.1163 419.331 94.9243C421.52 92.7322 424.49 91.5008 427.587 91.5008ZM435.754 99.0983L434.442 97.7713C434.378 97.7048 434.301 97.6519 434.216 97.6157C434.131 97.5795 434.04 97.5609 433.948 97.5609C433.855 97.5609 433.764 97.5795 433.679 97.6157C433.594 97.6519 433.517 97.7048 433.453 97.7713L425.211 105.946L421.728 102.433C421.664 102.366 421.587 102.314 421.502 102.277C421.417 102.241 421.326 102.223 421.234 102.223C421.141 102.223 421.05 102.241 420.965 102.277C420.88 102.314 420.803 102.366 420.739 102.433L419.427 103.76C419.361 103.824 419.308 103.901 419.272 103.986C419.236 104.071 419.217 104.163 419.217 104.255C419.217 104.347 419.236 104.439 419.272 104.524C419.308 104.609 419.361 104.686 419.427 104.75L424.716 110.086C424.78 110.152 424.857 110.205 424.942 110.241C425.027 110.277 425.118 110.296 425.211 110.296C425.303 110.296 425.394 110.277 425.479 110.241C425.564 110.205 425.641 110.152 425.705 110.086L435.754 100.102C435.821 100.038 435.873 99.9611 435.91 99.8761C435.946 99.791 435.964 99.6995 435.964 99.6071C435.964 99.5147 435.946 99.4232 435.91 99.3382C435.873 99.2531 435.821 99.1762 435.754 99.1121V99.0983Z" fill="#71F174"/>
<path opacity="0.7" d="M593.074 160.009C590.23 159.788 587.385 160.416 584.898 161.814C582.411 163.211 580.394 165.315 579.101 167.859C577.808 170.404 577.298 173.275 577.635 176.11C577.972 178.945 579.14 181.617 580.994 183.787C582.847 185.957 585.301 187.528 588.046 188.303C590.791 189.077 593.704 189.019 596.416 188.137C599.129 187.254 601.519 185.587 603.284 183.345C605.05 181.103 606.113 178.387 606.337 175.541C606.486 173.649 606.262 171.747 605.676 169.942C605.09 168.137 604.154 166.466 602.922 165.023C601.69 163.58 600.186 162.395 598.497 161.535C596.807 160.675 594.964 160.156 593.074 160.009V160.009ZM592.854 162.794C595.159 162.967 597.361 163.822 599.181 165.249C601.001 166.676 602.356 168.612 603.076 170.811C603.795 173.01 603.847 175.374 603.223 177.602C602.6 179.83 601.329 181.823 599.573 183.328C597.817 184.833 595.655 185.783 593.359 186.056C591.064 186.33 588.739 185.915 586.679 184.865C584.619 183.814 582.917 182.175 581.788 180.156C580.66 178.136 580.156 175.827 580.339 173.52C580.457 171.993 580.873 170.504 581.566 169.138C582.259 167.772 583.213 166.556 584.376 165.56C585.538 164.564 586.885 163.807 588.34 163.332C589.795 162.858 591.329 162.675 592.854 162.794ZM600.41 171.003L599.201 169.58C599.142 169.509 599.07 169.45 598.989 169.408C598.908 169.365 598.819 169.339 598.727 169.331C598.635 169.323 598.543 169.334 598.456 169.363C598.368 169.391 598.288 169.437 598.218 169.498L589.379 177.013L586.178 173.238C586.119 173.166 586.047 173.106 585.965 173.063C585.883 173.019 585.793 172.993 585.701 172.985C585.608 172.978 585.515 172.989 585.427 173.018C585.339 173.047 585.258 173.094 585.189 173.156L583.767 174.366C583.696 174.424 583.638 174.497 583.596 174.579C583.554 174.66 583.529 174.75 583.522 174.841C583.515 174.933 583.526 175.025 583.555 175.112C583.584 175.199 583.631 175.28 583.691 175.349L588.547 181.076C588.606 181.147 588.678 181.206 588.759 181.249C588.84 181.292 588.93 181.318 589.021 181.325C589.113 181.333 589.205 181.322 589.292 181.294C589.38 181.265 589.46 181.219 589.53 181.159L600.327 171.987C600.398 171.928 600.457 171.856 600.5 171.775C600.542 171.693 600.568 171.604 600.576 171.513C600.584 171.421 600.573 171.329 600.544 171.241C600.516 171.154 600.47 171.073 600.41 171.003V171.003Z" fill="#71F174"/>
</g>
<defs>
<linearGradient id="paint0_linear_234:1907" x1="504.956" y1="395.513" x2="504.956" y2="201.18" gradientUnits="userSpaceOnUse">
<stop stop-color="#808080" stop-opacity="0.25"/>
<stop offset="0.54" stop-color="#808080" stop-opacity="0.12"/>
<stop offset="1" stop-color="#808080" stop-opacity="0.1"/>
</linearGradient>
<clipPath id="clip0_234:1907">
<rect width="725" height="532.049" fill="white"/>
</clipPath>
</defs>
</svg>
