<svg width="502" height="85" viewBox="0 0 502 85" fill="none" xmlns="http://www.w3.org/2000/svg">
<g clip-path="url(#clip0_201:629)">
<path d="M60.675 -0.210744V84.526H52.9311V72.6485C48.0312 80.7574 39.7171 85.0977 29.8046 85.0977C12.7186 85.0977 -0.0452232 72.6485 -0.0452232 54.4901C-0.0452232 36.3317 12.7111 23.9954 29.8046 23.9954C39.3719 23.9954 47.5735 28.1101 52.5935 35.8729V-0.218262H60.675V-0.210744ZM52.6985 54.4901C52.6985 40.4463 43.1313 31.0813 30.48 31.0813C17.7236 31.0813 8.14884 40.4463 8.14884 54.4901C8.14884 68.5339 17.7161 77.899 30.48 77.899C43.1238 77.9065 52.6985 68.5415 52.6985 54.4901Z" fill="white"/>
<path d="M132.561 57.0024H82.436C83.344 69.5643 92.9188 77.8988 106.02 77.8988C113.314 77.8988 119.805 75.2736 124.359 70.0157L128.914 75.2661C123.557 81.6599 115.242 85.09 105.788 85.09C87.1034 85.09 74.347 72.3024 74.347 54.4825C74.347 36.6701 86.7657 23.9878 103.627 23.9878C120.487 23.9878 132.681 36.4369 132.681 54.4825C132.674 55.1745 132.561 56.0922 132.561 57.0024ZM82.4285 50.9471H124.922C123.894 39.1825 115.355 30.9608 103.619 30.9608C92.0033 30.9608 83.4565 39.19 82.4285 50.9471Z" fill="white"/>
<path d="M146.338 -0.210693H154.427V84.526H146.338V-0.210693Z" fill="white"/>
<path d="M208.199 80.8704C205.01 83.7288 200.222 85.0978 195.555 85.0978C184.277 85.0978 178.011 78.704 178.011 67.6239V31.3071H167.303V24.4544H178.011V11.3208H186.1V24.4544H204.327V31.3071H186.1V67.165C186.1 74.2434 189.747 78.1323 196.47 78.1323C199.772 78.1323 203.081 77.1018 205.355 75.0482L208.199 80.8704Z" fill="white"/>
<path d="M267.553 47.299V84.5335H259.809V75.1684C256.163 81.3366 249.102 85.1052 239.189 85.1052C225.63 85.1052 217.316 78.0268 217.316 67.6313C217.316 58.379 223.236 50.6162 240.442 50.6162H259.464V46.9604C259.464 36.6852 253.656 31.0888 242.491 31.0888C234.747 31.0888 227.453 33.8268 222.553 38.1671L218.907 32.1118C224.947 26.9742 233.831 24.0029 243.286 24.0029C258.781 23.9954 267.553 31.7658 267.553 47.299ZM259.464 66.4804V56.6565H240.667C229.044 56.6565 225.285 61.2224 225.285 67.3905C225.285 74.356 230.867 78.6963 240.435 78.6963C249.552 78.7038 256.275 74.3636 259.464 66.4804Z" fill="white"/>
<path d="M317.438 84.5186H291.52C287.896 84.5186 284.954 81.57 284.954 77.9368V36.4297C284.954 32.7965 287.896 29.8478 291.52 29.8478C295.144 29.8478 298.086 32.7965 298.086 36.4297V71.3549H316.965C317.175 71.3399 317.393 71.3324 317.611 71.3399H317.686C333.616 71.3399 346.575 58.3492 346.575 42.3797C346.575 26.4102 333.616 13.4195 317.686 13.4195H317.431C316.755 13.4195 316.11 13.3217 315.502 13.1337H291.52C287.896 13.1337 284.954 10.185 284.954 6.55183C284.954 2.91864 287.896 -0.0300293 291.52 -0.0300293H317.431C318.143 -0.0300293 318.834 0.0827971 319.479 0.293417C341.825 1.2412 359.714 19.7607 359.714 42.3872C359.714 65.5554 340.962 84.4133 317.881 84.5186C317.738 84.5111 317.588 84.5186 317.438 84.5186Z" fill="white"/>
<path d="M435.262 84.5262H369.747C366.062 84.5262 363.076 81.5324 363.076 77.839C363.076 74.1457 366.062 71.1518 369.747 71.1518H423.804L394.944 20.2647L386.75 34.7072C384.927 37.9191 380.86 39.0399 377.656 37.212C374.451 35.3841 373.333 31.3072 375.157 28.0952L389.144 3.43016C390.329 1.33901 392.543 0.0527344 394.944 0.0527344C397.345 0.0527344 399.559 1.34653 400.745 3.43016L441.062 74.5218C442.233 76.5903 442.225 79.1328 441.032 81.1864C439.832 83.2549 437.64 84.5262 435.262 84.5262Z" fill="white"/>
<path d="M464.909 84.3608C461.622 84.3608 458.756 81.9312 458.298 78.5763C457.795 74.913 460.354 71.5356 464.009 71.0316C478.198 69.0758 488.898 56.7621 488.898 42.3798C488.898 26.4329 475.962 13.4573 460.054 13.4573C451.717 13.4573 443.786 17.0829 438.293 23.4015C435.87 26.1922 431.652 26.4856 428.869 24.0559C426.085 21.6263 425.792 17.3988 428.216 14.6081C436.245 5.36345 447.846 0.0678711 460.054 0.0678711C483.331 0.0678711 502.263 19.0537 502.263 42.3798C502.263 63.4192 486.602 81.4422 465.832 84.3006C465.524 84.3382 465.217 84.3608 464.909 84.3608Z" fill="white"/>
</g>
<defs>
<clipPath id="clip0_201:629">
<rect width="502" height="85" fill="white"/>
</clipPath>
</defs>
</svg>
