<svg width="725" height="525" viewBox="0 0 725 525" fill="none" xmlns="http://www.w3.org/2000/svg">
<path opacity="0.2" d="M462.007 393.576V520.132H144.625C108.464 520.132 79.043 491.745 79.043 456.854C79.043 421.964 108.464 393.576 144.625 393.576H462.007Z" fill="white"/>
<path d="M469.802 519.159C469.802 520.45 469.288 521.687 468.375 522.6C467.461 523.513 466.222 524.026 464.93 524.026H138.972C121.269 524.026 104.291 517.001 91.7725 504.495C79.2543 491.989 72.2217 475.027 72.2217 457.341C72.2217 439.655 79.2543 422.693 91.7725 410.187C104.291 397.681 121.269 390.656 138.972 390.656H464.93C466.222 390.656 467.462 391.168 468.375 392.081C469.289 392.994 469.802 394.232 469.802 395.523C469.802 396.814 469.289 398.052 468.375 398.965C467.462 399.878 466.222 400.391 464.93 400.391H138.972C123.853 400.391 109.354 406.391 98.663 417.071C87.9723 427.751 81.9663 442.237 81.9663 457.341C81.9663 472.445 87.9723 486.931 98.663 497.611C109.354 508.291 123.853 514.291 138.972 514.291H464.93C466.222 514.292 467.461 514.805 468.375 515.717C469.288 516.63 469.802 517.868 469.802 519.159Z" fill="#00FFFF"/>
<path d="M462.007 422.781H120.945C120.686 422.781 120.438 422.679 120.256 422.496C120.073 422.314 119.97 422.066 119.97 421.808C119.97 421.55 120.073 421.302 120.256 421.12C120.438 420.937 120.686 420.834 120.945 420.834H462.007C462.265 420.834 462.513 420.937 462.696 421.12C462.878 421.302 462.981 421.55 462.981 421.808C462.981 422.066 462.878 422.314 462.696 422.496C462.513 422.679 462.265 422.781 462.007 422.781Z" fill="#CCCCCC"/>
<path d="M462.007 446.146H120.945C120.686 446.146 120.438 446.043 120.256 445.861C120.073 445.678 119.97 445.43 119.97 445.172C119.97 444.914 120.073 444.666 120.256 444.484C120.438 444.301 120.686 444.199 120.945 444.199H462.007C462.265 444.199 462.513 444.301 462.696 444.484C462.878 444.666 462.981 444.914 462.981 445.172C462.981 445.43 462.878 445.678 462.696 445.861C462.513 446.043 462.265 446.146 462.007 446.146Z" fill="#CCCCCC"/>
<path d="M462.007 469.51H120.945C120.686 469.51 120.438 469.407 120.256 469.225C120.073 469.042 119.97 468.795 119.97 468.536C119.97 468.278 120.073 468.031 120.256 467.848C120.438 467.666 120.686 467.563 120.945 467.563H462.007C462.265 467.563 462.513 467.666 462.696 467.848C462.878 468.031 462.981 468.278 462.981 468.536C462.981 468.795 462.878 469.042 462.696 469.225C462.513 469.407 462.265 469.51 462.007 469.51Z" fill="#CCCCCC"/>
<path d="M462.007 492.874H120.945C120.686 492.874 120.438 492.772 120.256 492.589C120.073 492.407 119.97 492.159 119.97 491.901C119.97 491.643 120.073 491.395 120.256 491.212C120.438 491.03 120.686 490.927 120.945 490.927H462.007C462.265 490.927 462.513 491.03 462.696 491.212C462.878 491.395 462.981 491.643 462.981 491.901C462.981 492.159 462.878 492.407 462.696 492.589C462.513 492.772 462.265 492.874 462.007 492.874Z" fill="#CCCCCC"/>
<g opacity="0.6">
<path opacity="0.2" d="M707.296 417.399L627.814 515.946L380.676 317.009C352.517 294.343 347.436 253.797 369.349 226.628C391.261 199.459 431.999 195.796 460.157 218.462L707.296 417.399Z" fill="white"/>
<path d="M634.496 520.074C633.685 521.079 632.507 521.721 631.223 521.859C629.938 521.997 628.651 521.62 627.645 520.81L373.828 316.497C360.043 305.401 351.234 289.288 349.341 271.703C347.447 254.119 352.624 236.503 363.731 222.731C374.839 208.959 390.967 200.16 408.569 198.268C426.171 196.376 443.804 201.548 457.589 212.644L711.406 416.957C711.905 417.358 712.32 417.853 712.627 418.414C712.934 418.975 713.127 419.591 713.196 420.227C713.264 420.863 713.207 421.506 713.027 422.119C712.846 422.733 712.547 423.305 712.145 423.803C711.744 424.301 711.248 424.715 710.686 425.021C710.124 425.328 709.508 425.521 708.871 425.589C708.235 425.657 707.591 425.599 706.977 425.419C706.363 425.238 705.79 424.939 705.292 424.538L451.475 220.225C445.647 215.529 438.949 212.026 431.764 209.917C424.58 207.808 417.05 207.133 409.605 207.932C402.16 208.731 394.945 210.987 388.373 214.572C381.801 218.157 376 223 371.302 228.825C366.604 234.65 363.1 241.343 360.992 248.521C358.883 255.699 358.211 263.222 359.013 270.659C359.816 278.097 362.077 285.304 365.668 291.868C369.259 298.432 374.109 304.226 379.942 308.917L633.759 513.23C634.764 514.04 635.407 515.216 635.545 516.499C635.683 517.783 635.306 519.068 634.496 520.074Z" fill="#1C47E5"/>
<path d="M688.954 440.14L423.376 226.36C423.276 226.28 423.193 226.181 423.132 226.069C423.07 225.957 423.032 225.833 423.018 225.706C423.004 225.579 423.016 225.451 423.052 225.328C423.088 225.205 423.148 225.091 423.228 224.991C423.308 224.892 423.408 224.809 423.52 224.748C423.632 224.686 423.755 224.648 423.883 224.634C424.01 224.621 424.139 224.632 424.261 224.668C424.384 224.704 424.499 224.764 424.598 224.844L690.176 438.624C690.276 438.704 690.359 438.803 690.421 438.916C690.482 439.028 690.521 439.151 690.535 439.278C690.549 439.406 690.537 439.534 690.501 439.657C690.465 439.78 690.405 439.894 690.325 439.994C690.244 440.094 690.145 440.176 690.033 440.238C689.92 440.299 689.797 440.337 689.67 440.351C689.542 440.365 689.414 440.353 689.291 440.317C689.168 440.281 689.053 440.221 688.954 440.14V440.14Z" fill="#CCCCCC"/>
<path d="M674.28 458.334L408.702 244.554C408.501 244.391 408.373 244.156 408.345 243.9C408.318 243.643 408.394 243.386 408.556 243.185C408.718 242.985 408.953 242.856 409.21 242.828C409.466 242.801 409.723 242.876 409.925 243.037L675.503 456.817C675.603 456.898 675.686 456.997 675.747 457.109C675.809 457.221 675.847 457.344 675.861 457.472C675.875 457.599 675.864 457.727 675.828 457.85C675.792 457.973 675.732 458.088 675.651 458.187C675.571 458.287 675.472 458.37 675.359 458.431C675.247 458.492 675.123 458.531 674.996 458.544C674.869 458.558 674.74 458.546 674.617 458.51C674.494 458.474 674.38 458.414 674.28 458.334Z" fill="#CCCCCC"/>
<path d="M659.606 476.527L394.028 262.747C393.827 262.585 393.699 262.35 393.671 262.093C393.643 261.836 393.719 261.579 393.881 261.378C394.043 261.177 394.279 261.049 394.536 261.021C394.793 260.993 395.05 261.069 395.251 261.231L660.829 475.011C660.929 475.091 661.012 475.19 661.073 475.302C661.134 475.415 661.173 475.538 661.187 475.665C661.2 475.792 661.189 475.921 661.153 476.043C661.117 476.166 661.057 476.28 660.977 476.38C660.896 476.479 660.797 476.562 660.685 476.623C660.573 476.685 660.449 476.723 660.322 476.737C660.195 476.751 660.066 476.739 659.943 476.703C659.821 476.667 659.706 476.607 659.606 476.527V476.527Z" fill="#CCCCCC"/>
<path d="M644.933 494.72L379.355 280.94C379.255 280.86 379.172 280.761 379.111 280.649C379.05 280.537 379.011 280.413 378.997 280.286C378.984 280.159 378.995 280.031 379.031 279.908C379.067 279.785 379.127 279.671 379.207 279.571C379.288 279.472 379.387 279.389 379.499 279.328C379.611 279.267 379.735 279.228 379.862 279.214C379.989 279.201 380.118 279.212 380.241 279.248C380.363 279.284 380.478 279.344 380.578 279.424L646.156 493.204C646.255 493.284 646.339 493.383 646.4 493.496C646.461 493.608 646.5 493.731 646.514 493.858C646.528 493.985 646.516 494.114 646.48 494.237C646.444 494.36 646.384 494.474 646.304 494.574C646.224 494.673 646.124 494.756 646.012 494.818C645.9 494.879 645.776 494.917 645.649 494.931C645.522 494.945 645.393 494.933 645.27 494.897C645.147 494.861 645.033 494.801 644.933 494.72Z" fill="#CCCCCC"/>
</g>
<path opacity="0.2" d="M724.026 525H0.974462C0.716019 525 0.46816 524.897 0.285413 524.715C0.102666 524.532 0 524.284 0 524.026C0 523.768 0.102666 523.52 0.285413 523.338C0.46816 523.155 0.716019 523.053 0.974462 523.053H724.026C724.284 523.053 724.532 523.155 724.715 523.338C724.897 523.52 725 523.768 725 524.026C725 524.284 724.897 524.532 724.715 524.715C724.532 524.897 724.284 525 724.026 525Z" fill="#00FFFF"/>
<path d="M329.447 380.274L318.307 380.273L313.009 337.345L329.451 337.347L329.447 380.274Z" fill="#FFB8B8"/>
<path d="M310.349 377.093H331.834V390.607H296.822C296.822 388.833 297.172 387.075 297.852 385.436C298.532 383.796 299.528 382.306 300.784 381.051C302.04 379.797 303.531 378.801 305.173 378.122C306.814 377.443 308.573 377.093 310.349 377.093Z" fill="#2F2E41"/>
<path d="M215.635 380.274L204.495 380.273L199.197 337.345L215.639 337.347L215.635 380.274Z" fill="#FFB8B8"/>
<path d="M196.537 377.093H218.022V390.607H183.01C183.01 388.833 183.36 387.075 184.039 385.436C184.719 383.796 185.716 382.306 186.972 381.051C188.228 379.797 189.719 378.801 191.36 378.122C193.002 377.443 194.761 377.093 196.537 377.093Z" fill="#2F2E41"/>
<path d="M252.845 61.85V56.9823C252.845 48.6557 256.156 40.6701 262.049 34.7823C267.943 28.8944 275.936 25.5867 284.271 25.5867H284.271C292.606 25.5867 300.599 28.8944 306.493 34.7823C312.387 40.6701 315.698 48.6557 315.698 56.9823V61.85C315.698 67.8529 313.311 73.61 309.062 77.8547C304.813 82.0994 299.05 84.484 293.041 84.484H275.501C272.526 84.4841 269.58 83.8986 266.831 82.7612C264.082 81.6237 261.584 79.9565 259.481 77.8547C257.377 75.7529 255.708 73.2578 254.569 70.5117C253.431 67.7656 252.845 64.8223 252.845 61.85Z" fill="#2F2E41"/>
<path d="M284.271 86.1589C297.489 86.1589 308.205 75.4539 308.205 62.2485C308.205 49.0432 297.489 38.3381 284.271 38.3381C271.053 38.3381 260.337 49.0432 260.337 62.2485C260.337 75.4539 271.053 86.1589 284.271 86.1589Z" fill="#FFB8B8"/>
<path d="M154.087 144.425C155.058 143.509 156.218 142.817 157.486 142.397C158.754 141.978 160.099 141.841 161.426 141.996C162.753 142.152 164.029 142.597 165.165 143.298C166.301 144 167.27 144.942 168.002 146.058L188.519 142.181L193.918 154.063L164.868 159.131C162.909 160.236 160.613 160.585 158.415 160.111C156.216 159.638 154.268 158.375 152.939 156.562C151.61 154.75 150.993 152.513 151.204 150.276C151.416 148.039 152.441 145.957 154.087 144.425V144.425Z" fill="#FFB8B8"/>
<path d="M265.88 101.623L232.236 123.765L175.466 141.875C174.713 142.117 174.068 142.612 173.639 143.275C173.21 143.939 173.025 144.73 173.115 145.515L174.354 156.171C174.409 156.643 174.562 157.098 174.803 157.507C175.044 157.916 175.368 158.27 175.754 158.547C176.141 158.824 176.581 159.017 177.046 159.114C177.511 159.21 177.992 159.209 178.456 159.11L231.886 147.668C234.472 147.118 236.917 146.042 239.069 144.509L276.866 117.643C278.237 116.664 279.33 115.347 280.04 113.821C280.75 112.294 281.053 110.61 280.919 108.933C280.78 107.252 280.206 105.637 279.253 104.246C278.3 102.855 277.001 101.736 275.484 100.998C273.966 100.26 272.283 99.9302 270.599 100.04C268.915 100.149 267.289 100.695 265.88 101.623Z" fill="#FF0041"/>
<path d="M318.506 368.092C317.651 368.093 316.815 367.844 316.099 367.377C315.383 366.91 314.818 366.245 314.474 365.463L263.403 239.392C263.284 239.119 263.083 238.889 262.829 238.732C262.575 238.576 262.279 238.501 261.981 238.518C261.683 238.535 261.397 238.642 261.162 238.826C260.927 239.01 260.754 239.261 260.666 239.546L219 362.28C218.824 362.852 218.533 363.381 218.144 363.835C217.756 364.29 217.279 364.661 216.742 364.924C216.205 365.188 215.62 365.339 215.023 365.368C214.425 365.398 213.828 365.305 213.268 365.095L199.296 359.86C198.538 359.579 197.872 359.093 197.374 358.456C196.875 357.819 196.564 357.057 196.473 356.254C190.187 301.55 245.001 163.47 245.556 162.082L245.709 161.698L295.677 172.74L295.781 172.853C315.716 194.58 332.102 331.615 335.185 358.865C335.3 359.849 335.076 360.843 334.549 361.683C334.023 362.523 333.226 363.159 332.29 363.486L319.957 367.843C319.491 368.008 319 368.092 318.506 368.092Z" fill="#2F2E41"/>
<path d="M275.454 177.184C263.348 177.184 249.851 174.773 245.696 164.82L245.6 164.591L245.73 164.379C249.009 159.004 253.343 149.835 251.013 148.114C246.424 144.724 244.198 139.147 244.395 131.539C244.825 115.023 256.089 100.359 272.427 95.0496C276.987 93.5917 281.628 92.398 286.326 91.4746C289.75 90.7842 293.286 90.8601 296.678 91.6969C300.07 92.5338 303.234 94.1107 305.944 96.3145C308.688 98.5328 310.905 101.331 312.438 104.507C313.97 107.683 314.78 111.159 314.808 114.685C314.979 132.336 312.259 156.919 298.327 173.797C297.674 174.58 296.766 175.108 295.762 175.288C289.059 176.499 282.265 177.133 275.454 177.184Z" fill="#FF0041"/>
<path d="M270.95 176.523C271.609 174.162 273.174 172.156 275.305 170.942C277.436 169.727 279.961 169.401 282.331 170.036C282.814 170.171 283.286 170.345 283.741 170.558L299.32 156.394L310.154 163.686L287.876 183.381C286.87 185.193 285.286 186.617 283.377 187.426C281.468 188.235 279.342 188.383 277.339 187.846C276.172 187.527 275.08 186.98 274.126 186.237C273.172 185.494 272.375 184.569 271.781 183.516C271.187 182.463 270.807 181.303 270.665 180.103C270.522 178.902 270.619 177.686 270.95 176.523Z" fill="#FFB8B8"/>
<path d="M296.852 176.703C295.842 176.704 294.862 176.354 294.08 175.715L287.936 170.699C287.424 170.281 287.013 169.753 286.734 169.154C286.456 168.555 286.316 167.9 286.326 167.24C286.337 166.579 286.496 165.929 286.794 165.339C287.091 164.749 287.518 164.233 288.042 163.831L313.809 144.089C314.114 143.853 314.315 143.507 314.366 143.126C314.418 142.744 314.317 142.357 314.085 142.049L298.182 121.045C296.334 118.613 295.407 115.606 295.565 112.556C295.724 109.507 296.957 106.612 299.046 104.384C301.247 102.009 304.261 100.548 307.49 100.29C310.719 100.032 313.927 100.996 316.477 102.991L316.578 103.097L333.185 126.853C334.98 128.26 336.426 130.062 337.41 132.119C338.393 134.176 338.887 136.433 338.853 138.712C338.819 140.992 338.258 143.233 337.214 145.26C336.17 147.287 334.671 149.045 332.834 150.398L299.463 175.844C298.707 176.402 297.792 176.703 296.852 176.703Z" fill="#FF0041"/>
<path d="M263.071 55.5223V43.659L284.271 34.4106L304.486 43.659V55.5223C304.486 56.0387 304.28 56.5339 303.915 56.8991C303.549 57.2642 303.054 57.4693 302.537 57.4693H265.02C264.503 57.4693 264.007 57.2642 263.642 56.8991C263.276 56.5339 263.071 56.0387 263.071 55.5223Z" fill="#2F2E41"/>
<path d="M283.298 27.1605C280.181 17.1932 286.727 5.77026 296.405 1.82495C306.083 -2.12036 317.661 0.637533 325.828 7.15578C333.994 13.674 339.06 23.4371 341.745 33.5293C344.43 43.6214 344.939 54.1451 345.435 64.5758C357.325 66.7579 365.414 80.8473 361.295 92.2024C357.176 103.557 341.93 109.199 331.401 103.264C320.871 97.3287 317.822 81.3747 325.421 71.9813C329.017 67.5365 331.025 62.0203 331.129 56.3063C331.232 50.5924 329.424 45.0073 325.991 40.4357C322.559 35.8641 317.697 32.5673 312.177 31.0674C306.658 29.5676 300.794 29.9504 295.517 32.1553C289.657 34.6036 282.304 28.2424 283.298 27.1605Z" fill="#2F2E41"/>
<path d="M149.691 98.4049C135.455 98.3115 121.397 95.2355 108.425 89.3757C107.652 89.0319 106.997 88.4711 106.538 87.7617C106.079 87.0523 105.837 86.225 105.84 85.3804V49.9272C105.842 48.7657 106.304 47.6522 107.126 46.8309C107.948 46.0096 109.063 45.5477 110.225 45.5464H189.157C190.319 45.5477 191.434 46.0097 192.256 46.8309C193.078 47.6522 193.541 48.7657 193.542 49.9272V85.3804C193.546 86.225 193.303 87.0524 192.844 87.7618C192.385 88.4711 191.73 89.0319 190.958 89.3757C177.986 95.2356 163.927 98.3115 149.691 98.4049Z" fill="#7300F3"/>
<path d="M149.68 69.6837C149.095 69.6842 148.516 69.5678 147.976 69.3414L85.3848 42.9597C84.5777 42.6195 83.891 42.0456 83.4134 41.3119C82.9357 40.5782 82.689 39.7185 82.7051 38.8434C82.7211 37.9684 82.9992 37.1182 83.5034 36.4025C84.0077 35.6868 84.7149 35.1384 85.534 34.828L148.126 11.1057C149.135 10.7219 150.249 10.7243 151.256 11.1124L213.009 34.8346C213.824 35.1475 214.526 35.696 215.027 36.41C215.528 37.124 215.804 37.971 215.82 38.8426C215.836 39.7142 215.591 40.5708 215.118 41.3028C214.644 42.0347 213.962 42.6088 213.16 42.9516L151.405 69.3329C150.86 69.5649 150.273 69.6842 149.68 69.6837Z" fill="#7300F3"/>
<path d="M113.149 91.7881C116.378 91.7881 118.996 89.173 118.996 85.947C118.996 82.7211 116.378 80.106 113.149 80.106C109.92 80.106 107.302 82.7211 107.302 85.947C107.302 89.173 109.92 91.7881 113.149 91.7881Z" fill="#FF0041"/>
<path opacity="0.2" d="M213.373 39.207L151.618 65.5883C151.137 65.794 150.619 65.9006 150.095 65.9019C149.571 65.9032 149.053 65.799 148.57 65.5957L85.9788 39.2147C85.1928 38.8913 84.537 38.3155 84.1151 37.5782C83.8391 38.0563 83.6681 38.5876 83.6134 39.1368C83.5587 39.686 83.6215 40.2406 83.7978 40.7636C83.9741 41.2867 84.2597 41.7663 84.6358 42.1707C85.0118 42.575 85.4696 42.8948 85.9788 43.1088L148.57 69.4897C149.053 69.6931 149.571 69.7972 150.095 69.7959C150.619 69.7947 151.137 69.688 151.618 69.4824L213.373 43.1011C213.879 42.8852 214.334 42.5644 214.708 42.1599C215.081 41.7553 215.365 41.2763 215.539 40.7544C215.713 40.2324 215.775 39.6794 215.72 39.1319C215.665 38.5844 215.494 38.0548 215.219 37.5781C214.8 38.3095 214.151 38.8822 213.373 39.207Z" fill="black"/>
<path d="M113.64 85.9243C113.899 85.9243 114.147 85.8218 114.329 85.6392C114.512 85.4566 114.615 85.209 114.615 84.9508V52.3758L146.754 40.679C147.012 40.6828 147.261 40.5839 147.447 40.4041C147.632 40.2242 147.739 39.9781 147.743 39.7199C147.746 39.4618 147.647 39.2126 147.467 39.0273C147.287 38.842 147.041 38.7358 146.783 38.7319L114.644 50.4288C114.385 50.4228 114.128 50.4694 113.888 50.5657C113.648 50.6619 113.43 50.8058 113.247 50.9887C113.062 51.1694 112.916 51.3853 112.816 51.6235C112.716 51.8617 112.665 52.1175 112.666 52.3758V84.9508C112.666 85.209 112.768 85.4566 112.951 85.6392C113.134 85.8217 113.382 85.9243 113.64 85.9243Z" fill="#3F3D56"/>
</svg>
