<svg width="314" height="330" viewBox="0 0 314 330" fill="none" xmlns="http://www.w3.org/2000/svg">
<g clip-path="url(#clip0_510:6)">
<path opacity="0.75" d="M67.8 285.71C94.44 284.27 135.42 265.85 197.75 213.71C277.97 146.6 296.84 104.55 292.8 78.7L313.53 198.82C316.51 212.74 312.64 228.47 300.66 238.5C300.66 238.5 282.03 256.56 253.31 280.59C224.59 304.62 203.52 319.76 203.52 319.76C195.26 326.67 185.31 329.61 175.74 329.13C175.74 329.13 172.77 329.4 160.15 327.71C147.54 326.02 54.03 287.09 50.15 283.87C50.15 283.87 55.02 285.41 58.79 285.76C63.69 286.2 67.8 285.71 67.8 285.71Z" fill="url(#paint0_linear_510:6)"/>
<path opacity="0.75" d="M292.67 78.7501C290.83 67.0001 284.14 58.4901 276.12 52.3101L276.59 52.6701C273.65 50.4201 270.84 49.2001 267.65 48.0401C267.65 48.0401 244 37.3701 208.83 24.5101C173.66 11.6501 148.7 4.54005 148.7 4.54005C145.31 3.44005 141.91 2.77005 138.55 2.51005C138.55 2.51005 116.86 -11.07 77.33 27.59C37.8 66.25 12.04 91.8201 12.04 91.8201C12.04 91.8201 23.01 83.5001 31.38 81.6701C57.53 75.9501 102.06 78.87 178.64 106.87C254.36 134.56 290.96 159.97 305.84 182.3C305.84 182.3 311 189.37 313.53 198.82L292.67 78.7501Z" fill="url(#paint1_linear_510:6)"/>
<path opacity="0.5" d="M292.67 78.7501C290.83 67.0001 284.14 58.4901 276.12 52.3101L276.59 52.6701C273.65 50.4201 270.84 49.2001 267.65 48.0401C267.65 48.0401 244 37.3701 208.83 24.5101C173.66 11.6501 148.7 4.54005 148.7 4.54005C145.31 3.44005 141.91 2.77005 138.55 2.51005C138.55 2.51005 116.86 -11.07 77.33 27.59C37.8 66.25 12.04 91.8201 12.04 91.8201C12.04 91.8201 23.01 83.5001 31.38 81.6701C57.53 75.9501 102.06 78.87 178.64 106.87C254.36 134.56 290.96 159.97 305.84 182.3C305.84 182.3 311 189.37 313.53 198.82L292.67 78.7501Z" fill="url(#paint2_linear_510:6)"/>
<path opacity="0.75" d="M50.1501 283.88C36.6601 279.46 24.7701 268.39 22.0601 252.86C22.0601 252.86 15.7301 227.7 9.28005 190.81C2.83005 153.92 0.250055 128.11 0.250055 128.11C-2.18994 114.13 2.84005 100.87 11.8401 92.0299L12.0401 91.8399C12.0401 91.8399 37.8001 66.27 77.3301 27.6099C116.86 -11.0501 138.55 2.52995 138.55 2.52995L138.77 2.54995C105.3 0.109948 70.2101 29.97 95.7001 175.78C116.64 295.58 147.8 327.74 175.74 329.15C175.74 329.15 172.53 330.68 160.15 327.73C129.99 320.51 50.1501 283.88 50.1501 283.88Z" fill="url(#paint3_linear_510:6)"/>
</g>
<defs>
<linearGradient id="paint0_linear_510:6" x1="50.1566" y1="203.941" x2="314.489" y2="203.941" gradientUnits="userSpaceOnUse">
<stop offset="0.071" stop-color="#3C7CE1"/>
<stop offset="1" stop-color="#102CA5"/>
</linearGradient>
<linearGradient id="paint1_linear_510:6" x1="12.0399" y1="99.5092" x2="313.53" y2="99.5092" gradientUnits="userSpaceOnUse">
<stop offset="0.1324" stop-color="#00FFFF"/>
<stop offset="0.8573" stop-color="#0F2AA5"/>
</linearGradient>
<linearGradient id="paint2_linear_510:6" x1="53.6407" y1="19.7661" x2="326.091" y2="177.065" gradientUnits="userSpaceOnUse">
<stop offset="0.073" stop-color="white" stop-opacity="0"/>
<stop offset="0.2497" stop-color="white" stop-opacity="0.9"/>
<stop offset="0.385" stop-color="white" stop-opacity="0.9"/>
<stop offset="0.6667" stop-color="white" stop-opacity="0"/>
<stop offset="0.8998" stop-color="white" stop-opacity="0"/>
</linearGradient>
<linearGradient id="paint3_linear_510:6" x1="87.6908" y1="329.53" x2="87.6908" y2="0.197649" gradientUnits="userSpaceOnUse">
<stop offset="0.0332" stop-color="#3C7CE1"/>
<stop offset="0.961" stop-color="#00FFFF"/>
</linearGradient>
<clipPath id="clip0_510:6">
<rect width="314" height="330" fill="white"/>
</clipPath>
</defs>
</svg>